<svg xmlns="http://www.w3.org/2000/svg" width="18.583" height="19.585" viewBox="0 0 18.583 19.585">
  <g id="share-svgrepo-com" transform="translate(-1.481)">
    <path id="Path_1565" data-name="Path 1565" d="M16.536,12.529a3.514,3.514,0,0,0-2.6,1.15l-5.605-2.7a3.477,3.477,0,0,0,0-2.383l5.605-2.7a3.524,3.524,0,1,0-.927-2.377,3.523,3.523,0,0,0,.047.548L7.087,6.945a3.529,3.529,0,1,0,0,5.694l5.966,2.87a3.564,3.564,0,0,0-.047.548,3.529,3.529,0,1,0,3.529-3.527Z" transform="translate(0 0)" fill="#131313"/>
  </g>
</svg>
