<svg xmlns="http://www.w3.org/2000/svg" width="45.618" height="45.717" viewBox="0 0 45.618 45.717">
  <g id="Group_757" data-name="Group 757" transform="translate(-1351.389 -1.76)">
    <path id="Path_1363" data-name="Path 1363" d="M1358.966,45.917V44.639q0-20.651,0-41.3c0-1.518.058-1.577,1.542-1.577q9.188,0,18.376,0c1.26,0,1.382.121,1.382,1.378q0,7.895,0,15.789v1.044c.388.019.7.048,1.019.049,3,0,6.006,0,9.01,0,1.232,0,1.392.163,1.392,1.382q0,11.641,0,23.282v1.227c.779,0,1.5,0,2.23,0a15.792,15.792,0,0,1,2.313.053c.291.045.518.507.774.779a4.92,4.92,0,0,1-.8.675c-.185.1-.466.026-.7.026q-21.32,0-42.64,0c-.621,0-1.5.2-1.47-.792.026-.892.86-.726,1.46-.73C1354.838,45.909,1356.827,45.917,1358.966,45.917ZM1378.7,20.023V3.377h-18.156V45.845h2.218c0-2.236-.013-4.4,0-6.568a2.315,2.315,0,0,1,2.422-2.5,13.1,13.1,0,0,1,1.337,0,2.278,2.278,0,0,1,2.316,2.415c.022,1.9.006,3.8.007,5.707v.958h1.541V21.842c0-.238.014-.476,0-.713-.054-.817.368-1.118,1.134-1.108,1.248.015,2.5,0,3.745,0Zm11.441,1.591h-18.2V45.838h18.2Zm-22.8,24.251V40.224c0-1.916-.036-1.951-1.936-1.9-.03,0-.06,0-.089,0-.725-.041-1.022.334-1.018,1.025.006,1.128,0,2.257,0,3.385,0,1.028,0,2.057,0,3.129Z" transform="translate(0 0)" fill="#fff"/>
    <path id="Path_1364" data-name="Path 1364" d="M1418.125,110.2c-.684,0-1.368.008-2.051,0a.873.873,0,0,1-.979-.994q.014-2.051,0-4.1a.874.874,0,0,1,.973-1c1.4-.011,2.794-.014,4.191,0a.837.837,0,0,1,.925.949q-.013,2.1,0,4.191a.836.836,0,0,1-.92.952C1419.552,110.211,1418.838,110.2,1418.125,110.2Zm-1.452-1.579h2.931v-2.935h-2.931Z" transform="translate(-52.337 -84.068)" fill="#fff"/>
    <path id="Path_1365" data-name="Path 1365" d="M1421.2,21.787c0,.743,0,1.487,0,2.23a.79.79,0,0,1-.885.881q-2.141.006-4.282,0c-.632,0-.914-.339-.914-.951q0-2.1,0-4.193a.833.833,0,0,1,.937-.936c1.4,0,2.8,0,4.193,0,.672,0,.966.349.955,1.007S1421.2,21.132,1421.2,21.787Zm-1.558-1.369h-2.912v2.919h2.912Z" transform="translate(-52.352 -14.013)" fill="#fff"/>
    <path id="Path_1366" data-name="Path 1366" d="M1421.2,149.934c0,.654-.008,1.309,0,1.963s-.275,1-.955,1c-1.4-.006-2.8,0-4.193,0a.824.824,0,0,1-.938-.927c0-1.4,0-2.8,0-4.193,0-.673.349-.967,1-.965q2.052.007,4.1,0a.854.854,0,0,1,.979.982C1421.194,148.507,1421.2,149.221,1421.2,149.934Zm-1.567-1.5h-2.982c0,.849-.032,1.618.021,2.38.014.2.283.538.454.55.813.058,1.633.026,2.507.026Z" transform="translate(-52.355 -119.164)" fill="#fff"/>
    <path id="Path_1367" data-name="Path 1367" d="M1418.2,61.558c.684,0,1.368,0,2.052,0a.817.817,0,0,1,.933.927c0,1.4-.005,2.8,0,4.193,0,.679-.35.968-1,.967q-2.052,0-4.1,0a.866.866,0,0,1-.985-.985c0-1.368.008-2.736,0-4.1-.005-.723.354-1.017,1.051-1S1417.515,61.557,1418.2,61.558Zm-1.491,1.531v2.95h2.894v-2.95Z" transform="translate(-52.338 -49.123)" fill="#fff"/>
    <path id="Path_1368" data-name="Path 1368" d="M1457.859,21.8q0-1.026,0-2.051a.827.827,0,0,1,.933-.933q2.1,0,4.192,0c.672,0,.963.369.963,1.012,0,1.368,0,2.735,0,4.1a.863.863,0,0,1-1,.971q-2.052-.015-4.1,0c-.665.006-1-.291-.991-.962C1457.863,23.229,1457.859,22.516,1457.859,21.8Zm4.489,1.544V20.426h-2.94v2.921Z" transform="translate(-87.468 -14.013)" fill="#fff"/>
    <path id="Path_1369" data-name="Path 1369" d="M1460.833,67.649c-.654,0-1.308,0-1.962,0s-1.014-.268-1.012-.95q0-2.1,0-4.191c0-.679.347-.955,1-.95q2.051.018,4.1,0a.861.861,0,0,1,.984.98q0,2.051,0,4.1c0,.71-.373,1.019-1.064,1.009S1461.517,67.65,1460.833,67.649Zm1.485-1.58V63.115h-2.893v2.954Z" transform="translate(-87.468 -49.128)" fill="#fff"/>
    <path id="Path_1370" data-name="Path 1370" d="M1521.856,124.215c0-.684.006-1.367,0-2.051a.826.826,0,0,1,.915-.952c1.4-.01,2.794-.009,4.191,0a.88.88,0,0,1,.986,1q0,2.051,0,4.1a.885.885,0,0,1-.982,1q-2.1.013-4.191,0a.83.83,0,0,1-.919-.951C1521.863,125.642,1521.856,124.929,1521.856,124.215Zm4.5-1.434h-2.948v2.931h2.948Z" transform="translate(-140.043 -98.129)" fill="#fff"/>
    <path id="Path_1371" data-name="Path 1371" d="M1485.193,124.242c0,.713,0,1.427,0,2.14a.8.8,0,0,1-.87.907c-1.427.022-2.853.021-4.28.006a.844.844,0,0,1-.934-.947q.007-2.1,0-4.191a.841.841,0,0,1,.924-.954c1.4-.016,2.794-.012,4.191,0a.86.86,0,0,1,.974.992C1485.182,122.874,1485.194,123.558,1485.193,124.242Zm-4.525,1.481h2.96V122.8h-2.96Z" transform="translate(-104.927 -98.118)" fill="#fff"/>
    <path id="Path_1372" data-name="Path 1372" d="M1485.2,209.679c0,.714,0,1.427,0,2.141a.8.8,0,0,1-.884.889q-2.141.014-4.282,0a.833.833,0,0,1-.914-.958c0-1.4,0-2.8,0-4.193a.823.823,0,0,1,.937-.928c1.4,0,2.8,0,4.193,0,.679,0,.966.342.956,1C1485.192,208.311,1485.2,209,1485.2,209.679Zm-4.475-1.49v2.927h2.891V208.19Z" transform="translate(-104.933 -168.308)" fill="#fff"/>
    <path id="Path_1373" data-name="Path 1373" d="M1479.1,166.964c0-.684.01-1.368,0-2.052s.3-1.058,1.009-1.056c1.368,0,2.736,0,4.1,0a.86.86,0,0,1,.979.986c-.009,1.368-.012,2.736,0,4.1.007.725-.35,1.009-1.047,1q-2.007-.023-4.014,0c-.708.007-1.044-.31-1.03-1.021C1479.105,168.273,1479.1,167.619,1479.1,166.964Zm4.5,1.447v-2.945h-2.881v2.945Z" transform="translate(-104.912 -133.169)" fill="#fff"/>
    <path id="Path_1374" data-name="Path 1374" d="M1524.857,169.938c-.684,0-1.367,0-2.051,0a.816.816,0,0,1-.939-.92c0-1.427,0-2.853,0-4.28a.8.8,0,0,1,.892-.881q2.14-.015,4.28,0a.821.821,0,0,1,.905.884c.017,1.427.013,2.853,0,4.28a.83.83,0,0,1-.953.916C1526.284,169.932,1525.571,169.938,1524.857,169.938Zm1.5-1.547v-2.92h-2.935v2.92Z" transform="translate(-140.054 -133.164)" fill="#fff"/>
    <path id="Path_1375" data-name="Path 1375" d="M1524.84,212.7c-.684,0-1.368,0-2.051,0a.828.828,0,0,1-.928-.939c0-1.4,0-2.794,0-4.192,0-.674.335-.962,1-.956q2.051.018,4.1,0a.862.862,0,0,1,.99.977c0,1.367,0,2.735,0,4.1,0,.707-.361,1.023-1.058,1.011S1525.523,212.7,1524.84,212.7Zm1.513-4.527h-2.922v2.931h2.922Z" transform="translate(-140.048 -168.296)" fill="#fff"/>
  </g>
</svg>
