<svg xmlns="http://www.w3.org/2000/svg" width="17.224" height="17.224" viewBox="0 0 17.224 17.224">
  <g id="Phone" transform="translate(-255.083 -150.41)">
    <path id="Path_26" data-name="Path 26" d="M279.005,158.071a14.427,14.427,0,0,0-7.655-7.618.551.551,0,0,0-.726.316.581.581,0,0,0,.307.749,13.3,13.3,0,0,1,7.058,7.024.557.557,0,0,0,.508.339.537.537,0,0,0,.228-.051A.582.582,0,0,0,279.005,158.071Z" transform="translate(-6.747 0)" fill="#fff"/>
    <path id="Path_27" data-name="Path 27" d="M270.42,156.979a8.059,8.059,0,0,1,4.281,4.251.538.538,0,0,0,.492.328.52.52,0,0,0,.22-.049.561.561,0,0,0,.271-.733,9.149,9.149,0,0,0-4.858-4.825.534.534,0,0,0-.7.306A.561.561,0,0,0,270.42,156.979Z" transform="translate(-6.529 -2.394)" fill="#fff"/>
    <path id="Path_28" data-name="Path 28" d="M269.332,161.508a1.314,1.314,0,0,0-1.985,0c-.464.46-.928.921-1.385,1.389a.315.315,0,0,1-.222.119.324.324,0,0,1-.159-.049c-.3-.164-.621-.3-.909-.476a14.4,14.4,0,0,1-3.471-3.159,8.242,8.242,0,0,1-1.244-1.993.286.286,0,0,1,.07-.367c.464-.448.917-.909,1.373-1.369a1.318,1.318,0,0,0,0-2.032c-.363-.367-.726-.725-1.088-1.092s-.745-.753-1.123-1.124a1.322,1.322,0,0,0-1.985,0c-.468.46-.917.932-1.393,1.384a2.262,2.262,0,0,0-.71,1.525,6.455,6.455,0,0,0,.5,2.781,16.893,16.893,0,0,0,3,5,18.558,18.558,0,0,0,6.147,4.809,8.889,8.889,0,0,0,3.4.991c.074,0,.147.006.219.006a2.433,2.433,0,0,0,1.923-.821c.4-.445.846-.85,1.267-1.275a1.327,1.327,0,0,0,.008-2.021Q270.451,162.618,269.332,161.508Zm1.421,3.452c-.139.14-.281.278-.424.416-.293.285-.6.579-.884.9a1.314,1.314,0,0,1-1.08.444c-.051,0-.1,0-.157,0a7.671,7.671,0,0,1-2.972-.879,17.514,17.514,0,0,1-5.776-4.52,15.7,15.7,0,0,1-2.806-4.666,5.308,5.308,0,0,1-.431-2.295,1.141,1.141,0,0,1,.362-.8c.294-.279.578-.565.862-.852.18-.182.361-.365.546-.547a.223.223,0,0,1,.4,0c.249.244.494.491.739.738l.372.373c.185.187.369.372.554.556s.356.356.536.538c.208.209.2.246,0,.44l-.19.192c-.387.39-.771.779-1.179,1.174a1.407,1.407,0,0,0-.313,1.6,9.214,9.214,0,0,0,1.41,2.269,15.454,15.454,0,0,0,3.75,3.4c.222.138.447.248.644.346.108.053.215.105.3.154a1.442,1.442,0,0,0,.716.2,1.414,1.414,0,0,0,1.031-.46c.446-.457.9-.908,1.372-1.376a.217.217,0,0,1,.392,0q1.116,1.11,2.226,2.222C270.933,164.7,270.951,164.76,270.753,164.961Z" transform="translate(0 -0.218)" fill="#fff"/>
  </g>
</svg>
