<svg id="Phone" xmlns="http://www.w3.org/2000/svg" width="13.762" height="13.762" viewBox="0 0 13.762 13.762">
  <path id="Path_26" data-name="Path 26" d="M277.312,156.531a11.527,11.527,0,0,0-6.116-6.087.44.44,0,0,0-.58.253.464.464,0,0,0,.245.6,10.63,10.63,0,0,1,5.639,5.612.445.445,0,0,0,.406.271.429.429,0,0,0,.182-.041A.465.465,0,0,0,277.312,156.531Z" transform="translate(-263.589 -150.41)" fill="#ffa03a"/>
  <path id="Path_27" data-name="Path 27" d="M270.352,156.764a6.439,6.439,0,0,1,3.42,3.4.43.43,0,0,0,.393.262.416.416,0,0,0,.176-.039.448.448,0,0,0,.216-.586,7.31,7.31,0,0,0-3.882-3.855.427.427,0,0,0-.561.244A.448.448,0,0,0,270.352,156.764Z" transform="translate(-263.315 -153.428)" fill="#ffa03a"/>
  <path id="Path_28" data-name="Path 28" d="M266.467,159.378a1.05,1.05,0,0,0-1.586,0c-.371.368-.742.735-1.106,1.109a.252.252,0,0,1-.178.1.259.259,0,0,1-.127-.039c-.24-.131-.5-.237-.726-.38a11.505,11.505,0,0,1-2.773-2.524,6.585,6.585,0,0,1-.994-1.592.228.228,0,0,1,.056-.293c.371-.358.732-.726,1.1-1.094a1.053,1.053,0,0,0,0-1.623c-.29-.293-.58-.579-.869-.872s-.6-.6-.9-.9a1.056,1.056,0,0,0-1.586,0c-.374.368-.732.744-1.113,1.106a1.807,1.807,0,0,0-.567,1.218,5.157,5.157,0,0,0,.4,2.222,13.5,13.5,0,0,0,2.4,3.991,14.827,14.827,0,0,0,4.911,3.842,7.1,7.1,0,0,0,2.72.791c.059,0,.117,0,.175,0a1.944,1.944,0,0,0,1.536-.656c.318-.356.676-.68,1.012-1.019a1.06,1.06,0,0,0,.006-1.614Q267.362,160.264,266.467,159.378Zm1.135,2.758c-.111.112-.225.222-.338.333-.234.227-.476.462-.707.721a1.05,1.05,0,0,1-.863.355c-.041,0-.082,0-.125,0a6.129,6.129,0,0,1-2.375-.7,13.993,13.993,0,0,1-4.615-3.611,12.546,12.546,0,0,1-2.242-3.728,4.241,4.241,0,0,1-.344-1.833.912.912,0,0,1,.289-.635c.235-.223.462-.452.689-.681.144-.146.288-.291.436-.437a.179.179,0,0,1,.32,0c.2.195.395.392.591.589l.3.3c.148.149.3.3.443.444s.285.284.428.43c.166.167.157.2,0,.352l-.152.153c-.309.312-.616.623-.942.938a1.124,1.124,0,0,0-.25,1.281,7.362,7.362,0,0,0,1.127,1.813,12.347,12.347,0,0,0,3,2.72c.178.11.357.2.515.276.086.042.172.084.244.123a1.152,1.152,0,0,0,.572.156,1.13,1.13,0,0,0,.824-.368c.356-.365.719-.725,1.1-1.1a.173.173,0,0,1,.314,0q.891.887,1.779,1.776C267.747,161.931,267.761,161.976,267.6,162.136Z" transform="translate(-255.083 -150.684)" fill="#ffa03a"/>
</svg>
