<svg xmlns="http://www.w3.org/2000/svg" width="26.162" height="25.078" viewBox="0 0 26.162 25.078">
  <g id="Group_800" data-name="Group 800" transform="translate(-1542.041 -13.007)">
    <path id="Path_1434" data-name="Path 1434" d="M1552.728,30.833l10.845-13.069-.038-.049c-.1.071-.207.136-.3.216q-6.722,5.746-13.437,11.5a.726.726,0,0,1-.817.173c-2.039-.714-4.086-1.4-6.133-2.1-.409-.138-.768-.32-.8-.809s.3-.717.679-.917q12.018-6.272,24.031-12.552c.379-.2.75-.356,1.141-.051a1,1,0,0,1,.272,1.07q-1.007,6.717-2,13.437c-.312,2.1-.619,4.211-.938,6.315a.826.826,0,0,1-1.179.746q-5.557-1.886-11.106-3.8A1.907,1.907,0,0,1,1552.728,30.833Z" fill="#ec6a4d"/>
    <path id="Path_1435" data-name="Path 1435" d="M1635.223,200.8l4.4,1.5a3.641,3.641,0,0,1-.2.357c-.853,1.167-1.716,2.326-2.563,3.5-.274.379-.594.63-1.075.469-.46-.154-.563-.542-.562-.983C1635.225,204.057,1635.223,202.476,1635.223,200.8Z" transform="translate(-83.651 -168.586)" fill="#ec6a4d"/>
  </g>
</svg>
