<svg xmlns="http://www.w3.org/2000/svg" width="20.87" height="15" viewBox="0 0 20.87 15">
  <g id="Mail_2" data-name="Mail 2" transform="translate(-163.667 -153.91)">
    <path id="Path_22" data-name="Path 22" d="M181.928,153.91H166.276a2.611,2.611,0,0,0-2.609,2.609V166.3a2.611,2.611,0,0,0,2.609,2.609h15.652a2.612,2.612,0,0,0,2.609-2.609v-9.783A2.612,2.612,0,0,0,181.928,153.91Zm1.3,12.391a1.306,1.306,0,0,1-1.3,1.3H166.276a1.306,1.306,0,0,1-1.3-1.3v-9.783a1.306,1.306,0,0,1,1.3-1.3h15.652a1.306,1.306,0,0,1,1.3,1.3Z" fill="#fff"/>
    <path id="Path_23" data-name="Path 23" d="M183.172,159.149a.653.653,0,0,0-.918-.092l-6.76,5.532-6.761-5.532a.652.652,0,0,0-.826,1.01l7.174,5.87a.653.653,0,0,0,.826,0l7.174-5.87A.653.653,0,0,0,183.172,159.149Z" transform="translate(-1.391 -1.739)" fill="#fff"/>
    <path id="Path_24" data-name="Path 24" d="M186.78,167.1a.652.652,0,1,0-.922.922l2.609,2.609a.652.652,0,0,0,.922-.922Z" transform="translate(-7.652 -4.522)" fill="#fff"/>
    <path id="Path_25" data-name="Path 25" d="M170.467,167.1l-2.609,2.609a.652.652,0,1,0,.922.922l2.609-2.609a.652.652,0,1,0-.922-.922Z" transform="translate(-1.391 -4.522)" fill="#fff"/>
  </g>
</svg>
